<svg width="160" height="40" viewBox="0 0 160 40" fill="none" xmlns="http://www.w3.org/2000/svg">
<path d="M157.016 30.5676C156.841 24.6904 155.438 19.6027 151.666 15.2167C147.718 10.7431 141.227 6.70796 134.122 4.86586C128.245 3.37463 122.192 2.76059 116.139 3.11147C113.508 3.28691 110.876 3.63779 108.332 4.42726C108.069 4.51498 107.806 4.6027 107.455 4.69042C107.718 3.98866 107.894 3.28691 107.894 2.58516C107.894 2.40972 107.981 2.23428 108.069 2.14656L108.157 2.05884C108.508 1.8834 108.946 1.79568 109.297 1.79568C117.718 0.216734 126.402 0.567612 134.736 2.84831C142.367 4.77814 149.648 8.90095 153.946 13.7255C158.069 18.4624 159.736 24.1641 159.999 30.5676H157.016Z" fill="#C6EAF3"/>
<path d="M89.7369 16.3535C87.8071 16.3535 85.8773 16.9676 84.2983 18.1079C82.5439 19.4237 81.2282 21.2658 80.4387 23.2833C79.4738 25.564 79.2983 27.2307 80.0001 28.4588C80.7018 29.5991 82.1053 30.2132 84.386 30.2132C85.7896 30.2132 87.1931 30.0377 88.5966 29.6868C88.5966 29.6868 88.5966 29.6868 88.6843 29.6868C88.8597 29.6868 89.0352 29.5991 89.1229 29.4237C89.2106 29.336 89.2983 29.1605 89.2983 28.9851C89.4738 28.2833 89.8246 27.4939 90.1755 26.8798C89.7369 27.0553 89.2106 27.143 88.772 27.3184C87.8071 27.5816 86.8422 27.757 85.8773 27.757C84.6492 27.757 83.158 27.4939 82.8071 26.8798C82.3685 26.3535 82.3685 25.4763 82.8071 24.2483H90.8773C91.1404 24.2483 91.4913 24.1605 91.7545 24.0728C92.0176 23.9851 92.1931 23.8097 92.3685 23.5465C92.4562 23.4588 92.5439 23.2833 92.5439 23.1956C94.5615 18.6342 93.5966 16.3535 89.7369 16.3535ZM90.4387 22.0553H83.6843C84.1229 21.0904 84.8246 20.2132 85.7018 19.5114C86.6668 18.8097 87.8948 18.4588 89.0352 18.4588C90.7018 18.5465 91.4036 19.8623 90.4387 22.0553Z" fill="#F0AA32"/>
<path d="M105.615 11.2643C105.879 11.2643 105.966 11.4397 105.791 11.7029L99.9136 23.9836C99.8259 24.2467 99.5627 24.4222 99.2996 24.4222H96.8434C96.5803 24.4222 96.4926 24.2467 96.5803 23.9836L101.493 11.7029C101.58 11.4397 101.756 11.2643 102.019 11.2643H105.615ZM95.1768 26.7029C95.2645 26.4397 95.4399 26.352 95.7031 26.352H98.6855C98.9487 26.352 99.0364 26.4397 98.861 26.7029L97.6329 29.5099C97.5452 29.7731 97.3697 29.8608 97.1066 29.8608H94.1241C93.861 29.8608 93.7733 29.7731 93.9487 29.5099L95.1768 26.7029Z" fill="#5CC2DC"/>
<path d="M92.7197 4.42026C92.5442 4.24482 92.3688 4.1571 92.1934 4.1571H92.1056C91.667 4.24482 91.3162 4.42026 90.9653 4.68342C87.8074 5.91149 84.8249 7.66588 82.1934 9.77114C81.5793 10.2097 81.053 10.6483 80.5267 11.1746C78.6846 13.0168 77.1056 15.2097 75.8776 17.5782C75.8776 17.6659 75.7899 17.7536 75.7899 17.8413C75.7021 17.929 75.7021 18.0168 75.6144 18.1922C75.2635 18.8939 74.9127 19.5957 74.5618 20.3852C74.0355 21.6132 73.5091 22.929 73.1583 24.2448C73.0706 24.508 72.9828 24.7711 72.9828 25.0343L72.8074 25.2975C71.2284 22.8413 69.8249 20.2975 68.6846 17.6659C68.0706 16.3501 67.7197 14.8589 67.4565 13.4554C67.5442 13.3676 67.5442 13.2799 67.4565 13.1922C67.3688 12.7536 65.9653 12.1396 63.3337 11.6132C63.3337 12.6659 63.246 13.6308 62.9828 14.5957C62.1934 18.2799 60.5267 21.7887 58.246 24.7711C57.7197 25.3852 57.2811 25.9992 56.8425 26.5255C55.439 28.0168 53.9477 29.2448 52.2811 30.3852C46.5793 34.2448 38.5091 36.5255 30.0004 36.5255C22.8074 36.6133 15.7021 35.4729 8.86002 33.1922C6.14072 32.2273 3.50915 30.9992 1.053 29.508C0.789847 29.3325 0.43897 29.1571 0.175812 28.9817C0.263531 29.8589 0.263531 30.6483 0.0880923 31.5255C0.000373036 31.701 0.0880923 31.8764 0.175812 32.0518L0.263531 32.1396C0.614408 32.4027 1.053 32.6659 1.4916 32.8413C9.6495 37.1396 19.0355 39.2448 30.0881 39.2448C39.1232 39.2448 48.3337 37.0518 54.4741 32.8413C54.9127 32.5782 55.2635 32.2273 55.7021 31.9641C56.3162 31.5255 56.8425 31.0869 57.3688 30.5606C59.8249 28.3676 61.9302 25.8238 63.5092 22.929C64.4741 21.2624 65.2635 19.508 65.8776 17.6659C66.3162 18.8062 66.8425 19.9466 67.3688 21.0869C68.3337 23.1922 68.9477 24.3325 70.7898 27.6659C71.1407 28.3676 71.667 29.0694 72.1056 29.6834C72.5442 29.9466 72.9828 30.122 73.5092 30.122C74.3863 30.122 75.1758 29.508 75.2635 28.6308C75.2635 28.1045 75.5267 27.1396 75.5267 26.701C75.7021 25.7361 75.8776 24.8589 76.1407 23.9817C77.3688 20.6483 79.1232 17.6659 81.4916 15.0343C85.2635 10.9115 90.1758 7.84132 95.5267 6.17465C94.4741 5.64833 93.5969 5.12202 92.7197 4.42026Z" fill="#5CC2DC"/>
<path d="M7.68829 19.2834C7.51285 17.7921 7.16197 16.3009 6.72338 14.8974C6.72338 14.8097 6.8111 14.3711 6.46022 14.4588C5.67074 14.6342 4.88127 14.8974 4.0918 15.2483L4.17952 15.4237C4.61811 17.0027 4.96899 18.5816 5.05671 20.2483C5.05671 20.5992 5.14443 20.6869 5.31987 20.5992L7.33741 19.8097C7.60057 19.722 7.68829 19.5465 7.68829 19.2834Z" fill="#5CC2DC"/>
<path d="M12.9499 18.7556C12.8622 17.2644 12.6867 15.8609 12.3359 14.4574C12.3359 14.3697 12.5113 14.0188 12.1604 14.0188C11.3709 14.1065 10.5815 14.282 9.79199 14.6328L9.87971 14.8083C10.2306 16.3872 10.406 17.9662 10.406 19.5451C10.406 19.896 10.4937 19.9837 10.6692 19.896L12.6867 19.282C12.8622 19.282 12.9499 19.1065 12.9499 18.7556Z" fill="#5CC2DC"/>
<path d="M21.0213 14.2803C20.2319 14.1049 19.3547 14.0172 18.4775 13.9294L18.3898 14.2803C16.9862 21.2979 12.9512 25.4207 5.14414 27.6137H4.9687C4.79326 27.6137 4.61782 27.7014 4.44238 27.7014C5.05642 28.14 5.58273 28.5786 6.02133 29.1926C6.10905 29.2803 6.19677 29.4558 6.28449 29.5435C6.37221 29.7189 6.54765 29.8066 6.63537 29.8066H6.72308C6.8108 29.8066 6.98624 29.8066 7.07396 29.7189C11.6354 28.14 14.7933 26.3856 17.4248 22.8768C19.0915 20.4207 20.4073 17.7891 21.3722 14.9821C21.7231 14.6312 21.6354 14.5435 21.0213 14.2803Z" fill="#5CC2DC"/>
<path d="M39.5625 17.4937H39.3871C38.6853 17.4937 37.6327 17.4937 36.4046 17.4937C35.352 17.4937 34.2117 17.5814 32.8959 17.5814C32.9836 17.3183 33.0713 16.9674 33.0713 16.7043C33.159 16.3534 33.2467 16.0025 33.3345 15.6516C33.4222 15.3885 33.5099 15.1253 33.5099 14.7744C33.5976 14.2481 33.7731 13.6341 33.9485 13.02C33.9485 12.9323 33.8608 12.8446 33.6853 12.8446H31.3169C31.1415 12.8446 30.966 12.9323 30.966 13.1078C30.7029 15.1253 30.5274 16.0025 30.2643 17.406C26.931 17.406 24.2994 17.406 22.8081 17.406C22.6327 17.406 22.545 17.3183 22.3696 17.3183L22.0187 19.4236C21.931 19.6867 22.0187 19.7744 22.1941 19.7744C23.6853 19.7744 26.4046 19.6867 29.6503 19.6867C29.0362 23.1078 26.8432 26.0025 23.7731 27.5814C23.3345 27.7569 22.8959 28.02 22.4573 28.1955L22.3696 28.2832C22.1064 28.3709 21.8432 28.5464 21.5801 28.6341C22.4573 28.985 23.2467 29.4236 23.9485 30.0376C24.0362 30.1253 24.2117 30.213 24.3871 30.213C24.3871 30.213 24.3871 30.213 24.4748 30.213H24.5625C24.738 30.1253 25.0011 30.0376 25.1766 29.9499C28.159 28.1955 30.0889 26.3534 31.3169 23.3709C31.7555 22.2306 32.1064 21.0025 32.3696 19.7744C33.159 19.7744 33.7731 19.6867 34.4748 19.6867C35.7029 19.6867 36.8432 19.6867 37.7204 19.6867C38.2467 19.6867 38.6853 19.6867 39.0362 19.6867C39.1239 19.6867 39.2994 19.599 39.2994 19.4236L39.738 17.4937C39.8257 17.4937 39.738 17.4937 39.5625 17.4937Z" fill="#5CC2DC"/>
<path d="M57.9827 14.0084C57.5442 13.3066 56.9301 12.6049 56.4038 11.9908C56.3161 11.9031 56.1406 11.9031 56.0529 11.9908C55.5266 12.254 55.088 12.6049 54.6494 13.0435L54.8249 13.2189C55.3512 13.8329 55.8775 14.447 56.3161 15.2365C56.4038 15.3242 56.4915 15.3242 56.5792 15.2365C56.667 15.1487 57.281 14.7101 57.895 14.2715C58.0705 14.1838 58.0705 14.0961 57.9827 14.0084Z" fill="#5CC2DC"/>
<path d="M60.4408 13.133C60.0022 12.4312 59.3881 11.7295 58.8618 11.1154C58.6864 11.0277 58.5987 11.0277 58.5109 11.0277C57.9846 11.2909 57.546 11.7295 57.1074 12.1681L57.2829 12.3435C57.8092 12.9575 58.3355 13.5716 58.7741 14.361C58.8618 14.4488 58.9495 14.4488 59.0372 14.361C59.125 14.2733 59.739 13.8347 60.353 13.3961C60.4408 13.3084 60.4408 13.2207 60.4408 13.133Z" fill="#5CC2DC"/>
<path d="M57.6311 16.8157C57.4556 16.6402 56.403 15.4122 56.403 15.4122H56.3153C54.2977 15.4999 51.9293 15.5876 50.7012 15.5876H49.9995C50.4381 14.9736 50.7012 14.535 51.1398 13.8332C51.2276 13.8332 51.5784 13.5701 51.403 13.3946C50.6135 13.0437 49.824 12.7806 49.0346 12.6929L48.9469 12.8683C47.017 16.2894 44.0346 19.0964 40.4381 20.6753L40.1749 20.763L41.4907 21.9911L41.6662 22.1666C41.6662 22.342 41.7539 22.4297 41.9293 22.4297C42.1047 22.4297 42.2802 22.342 42.4556 22.2543C44.5609 21.1139 46.403 19.6227 48.0697 17.956L48.9469 17.8683C50.789 17.7806 52.8065 17.7806 54.4732 17.8683C51.7539 23.2192 46.5784 26.9911 40.6135 28.0437L40.2626 28.1315C40.0872 28.1315 39.9118 28.2192 39.7363 28.2192C40.4381 28.7455 41.0521 29.4473 41.4907 30.149C41.5784 30.149 41.6662 30.3245 41.8416 30.3245H41.9293C42.2802 30.3245 42.7188 30.2367 43.0697 30.0613C44.0346 29.7981 44.824 29.4473 45.8767 29.0964C49.5609 27.5174 52.7188 24.8859 54.9995 21.6402C55.8767 20.2367 56.6662 18.8332 57.3679 17.342C57.3679 17.342 57.8065 16.9911 57.6311 16.8157Z" fill="#5CC2DC"/>
<path d="M112.493 13.6545C113.37 11.4615 114.686 10.7598 116.177 10.7598H121.879C125.651 10.7598 125.124 13.6545 123.809 16.9878C122.493 20.3212 120.563 23.3036 116.791 23.3036H111.879L109.072 30.1457H105.826L112.493 13.6545ZM116.352 20.3212C118.633 20.3212 119.51 19.1808 120.388 16.9878C121.265 14.7949 121.265 13.6545 119.072 13.6545H116.967C116.002 13.6545 115.651 13.9177 115.124 15.058L112.931 20.4089L116.352 20.3212Z" fill="#F25F28"/>
<path d="M138.542 20.4087C135.472 27.9526 133.103 30.321 127.051 30.321C121.086 30.321 120.559 27.9526 123.542 20.4087C126.524 12.8649 129.068 10.4965 135.033 10.4965C141.086 10.4965 141.612 12.8649 138.542 20.4087ZM128.191 27.4263C131.7 27.4263 133.016 25.6719 135.121 20.4087C137.226 15.1456 137.402 13.3912 133.893 13.3912C130.384 13.3912 129.068 15.1456 126.963 20.4087C124.858 25.6719 124.682 27.4263 128.191 27.4263Z" fill="#F25F28"/>
<path d="M137.053 27.1633H143.719C144.86 27.1633 145.825 26.3738 146.088 25.3212C146.526 24.444 146.175 23.3913 145.386 22.865L142.491 20.4966C140.912 19.2685 140.649 17.7773 141.702 15.1457C142.842 12.3387 144.684 10.7598 147.491 10.7598H154.772L153.632 13.6545H147.228C146.439 13.6545 145.649 13.9177 145.123 15.3212C144.684 16.1984 144.86 17.1633 145.649 17.7773L148.105 20.058C149.772 21.5492 150.825 22.4264 149.596 25.4089C148.456 28.2159 146.614 30.1457 143.982 30.1457H136L137.053 27.1633Z" fill="#F25F28"/>
</svg>
